<svg class="lds-spinner" width="200px"  height="200px"  xmlns="http://www.w3.org/2000/svg" xmlns:xlink="http://www.w3.org/1999/xlink" viewBox="0 0 100 100" preserveAspectRatio="xMidYMid" style="background: none;"><g transform="rotate(0 50 50)">
  <rect x="47" y="30.5" rx="0" ry="0" width="6" height="7" fill="#ea4c89">
    <animate attributeName="opacity" values="1;0" times="0;1" dur="0.7s" begin="-0.6649999999999999s" repeatCount="indefinite"></animate>
  </rect>
</g><g transform="rotate(18 50 50)">
  <rect x="47" y="30.5" rx="0" ry="0" width="6" height="7" fill="#ea4c89">
    <animate attributeName="opacity" values="1;0" times="0;1" dur="0.7s" begin="-0.63s" repeatCount="indefinite"></animate>
  </rect>
</g><g transform="rotate(36 50 50)">
  <rect x="47" y="30.5" rx="0" ry="0" width="6" height="7" fill="#ea4c89">
    <animate attributeName="opacity" values="1;0" times="0;1" dur="0.7s" begin="-0.595s" repeatCount="indefinite"></animate>
  </rect>
</g><g transform="rotate(54 50 50)">
  <rect x="47" y="30.5" rx="0" ry="0" width="6" height="7" fill="#ea4c89">
    <animate attributeName="opacity" values="1;0" times="0;1" dur="0.7s" begin="-0.5599999999999999s" repeatCount="indefinite"></animate>
  </rect>
</g><g transform="rotate(72 50 50)">
  <rect x="47" y="30.5" rx="0" ry="0" width="6" height="7" fill="#ea4c89">
    <animate attributeName="opacity" values="1;0" times="0;1" dur="0.7s" begin="-0.525s" repeatCount="indefinite"></animate>
  </rect>
</g><g transform="rotate(90 50 50)">
  <rect x="47" y="30.5" rx="0" ry="0" width="6" height="7" fill="#ea4c89">
    <animate attributeName="opacity" values="1;0" times="0;1" dur="0.7s" begin="-0.48999999999999994s" repeatCount="indefinite"></animate>
  </rect>
</g><g transform="rotate(108 50 50)">
  <rect x="47" y="30.5" rx="0" ry="0" width="6" height="7" fill="#ea4c89">
    <animate attributeName="opacity" values="1;0" times="0;1" dur="0.7s" begin="-0.45499999999999996s" repeatCount="indefinite"></animate>
  </rect>
</g><g transform="rotate(126 50 50)">
  <rect x="47" y="30.5" rx="0" ry="0" width="6" height="7" fill="#ea4c89">
    <animate attributeName="opacity" values="1;0" times="0;1" dur="0.7s" begin="-0.41999999999999993s" repeatCount="indefinite"></animate>
  </rect>
</g><g transform="rotate(144 50 50)">
  <rect x="47" y="30.5" rx="0" ry="0" width="6" height="7" fill="#ea4c89">
    <animate attributeName="opacity" values="1;0" times="0;1" dur="0.7s" begin="-0.38499999999999995s" repeatCount="indefinite"></animate>
  </rect>
</g><g transform="rotate(162 50 50)">
  <rect x="47" y="30.5" rx="0" ry="0" width="6" height="7" fill="#ea4c89">
    <animate attributeName="opacity" values="1;0" times="0;1" dur="0.7s" begin="-0.35s" repeatCount="indefinite"></animate>
  </rect>
</g><g transform="rotate(180 50 50)">
  <rect x="47" y="30.5" rx="0" ry="0" width="6" height="7" fill="#ea4c89">
    <animate attributeName="opacity" values="1;0" times="0;1" dur="0.7s" begin="-0.315s" repeatCount="indefinite"></animate>
  </rect>
</g><g transform="rotate(198 50 50)">
  <rect x="47" y="30.5" rx="0" ry="0" width="6" height="7" fill="#ea4c89">
    <animate attributeName="opacity" values="1;0" times="0;1" dur="0.7s" begin="-0.27999999999999997s" repeatCount="indefinite"></animate>
  </rect>
</g><g transform="rotate(216 50 50)">
  <rect x="47" y="30.5" rx="0" ry="0" width="6" height="7" fill="#ea4c89">
    <animate attributeName="opacity" values="1;0" times="0;1" dur="0.7s" begin="-0.24499999999999997s" repeatCount="indefinite"></animate>
  </rect>
</g><g transform="rotate(234 50 50)">
  <rect x="47" y="30.5" rx="0" ry="0" width="6" height="7" fill="#ea4c89">
    <animate attributeName="opacity" values="1;0" times="0;1" dur="0.7s" begin="-0.20999999999999996s" repeatCount="indefinite"></animate>
  </rect>
</g><g transform="rotate(252 50 50)">
  <rect x="47" y="30.5" rx="0" ry="0" width="6" height="7" fill="#ea4c89">
    <animate attributeName="opacity" values="1;0" times="0;1" dur="0.7s" begin="-0.175s" repeatCount="indefinite"></animate>
  </rect>
</g><g transform="rotate(270 50 50)">
  <rect x="47" y="30.5" rx="0" ry="0" width="6" height="7" fill="#ea4c89">
    <animate attributeName="opacity" values="1;0" times="0;1" dur="0.7s" begin="-0.13999999999999999s" repeatCount="indefinite"></animate>
  </rect>
</g><g transform="rotate(288 50 50)">
  <rect x="47" y="30.5" rx="0" ry="0" width="6" height="7" fill="#ea4c89">
    <animate attributeName="opacity" values="1;0" times="0;1" dur="0.7s" begin="-0.10499999999999998s" repeatCount="indefinite"></animate>
  </rect>
</g><g transform="rotate(306 50 50)">
  <rect x="47" y="30.5" rx="0" ry="0" width="6" height="7" fill="#ea4c89">
    <animate attributeName="opacity" values="1;0" times="0;1" dur="0.7s" begin="-0.06999999999999999s" repeatCount="indefinite"></animate>
  </rect>
</g><g transform="rotate(324 50 50)">
  <rect x="47" y="30.5" rx="0" ry="0" width="6" height="7" fill="#ea4c89">
    <animate attributeName="opacity" values="1;0" times="0;1" dur="0.7s" begin="-0.034999999999999996s" repeatCount="indefinite"></animate>
  </rect>
</g><g transform="rotate(342 50 50)">
  <rect x="47" y="30.5" rx="0" ry="0" width="6" height="7" fill="#ea4c89">
    <animate attributeName="opacity" values="1;0" times="0;1" dur="0.7s" begin="0s" repeatCount="indefinite"></animate>
  </rect>
</g></svg>